<svg xmlns="http://www.w3.org/2000/svg" viewBox="0 0 1600 980" role="img" aria-label="个人网站首屏视觉">
  <defs>
    <linearGradient id="sky" x1="0" x2="1" y1="0" y2="1">
      <stop offset="0" stop-color="#173244"/>
      <stop offset="0.48" stop-color="#1d5658"/>
      <stop offset="1" stop-color="#e8ad37"/>
    </linearGradient>
    <linearGradient id="panel" x1="0" x2="1" y1="0" y2="1">
      <stop offset="0" stop-color="#ffffff" stop-opacity="0.92"/>
      <stop offset="1" stop-color="#d9e6e1" stop-opacity="0.72"/>
    </linearGradient>
    <filter id="shadow" x="-20%" y="-20%" width="140%" height="140%">
      <feDropShadow dx="0" dy="26" stdDeviation="26" flood-color="#101820" flood-opacity="0.28"/>
    </filter>
  </defs>
  <rect width="1600" height="980" fill="url(#sky)"/>
  <path d="M1100 0H1600V980H820C1045 760 1180 540 1100 0Z" fill="#e85d4a" opacity="0.72"/>
  <path d="M0 720C260 610 520 720 760 614C1030 494 1216 180 1600 276V980H0Z" fill="#101820" opacity="0.34"/>
  <g transform="translate(930 160)" filter="url(#shadow)">
    <rect x="0" y="0" width="430" height="660" rx="42" fill="#101820"/>
    <rect x="24" y="28" width="382" height="604" rx="30" fill="url(#panel)"/>
    <rect x="66" y="96" width="250" height="18" rx="9" fill="#117a7a"/>
    <rect x="66" y="144" width="306" height="86" rx="18" fill="#e85d4a" opacity="0.9"/>
    <rect x="66" y="264" width="130" height="130" rx="22" fill="#315b88"/>
    <rect x="222" y="264" width="130" height="130" rx="22" fill="#e8ad37"/>
    <rect x="66" y="430" width="306" height="18" rx="9" fill="#101820" opacity="0.24"/>
    <rect x="66" y="472" width="242" height="18" rx="9" fill="#101820" opacity="0.18"/>
    <rect x="66" y="514" width="280" height="18" rx="9" fill="#101820" opacity="0.18"/>
  </g>
  <g transform="translate(790 556)" filter="url(#shadow)">
    <rect x="0" y="0" width="320" height="214" rx="18" fill="#f9f2e7"/>
    <rect x="30" y="34" width="88" height="18" rx="9" fill="#e85d4a"/>
    <rect x="30" y="78" width="250" height="12" rx="6" fill="#101820" opacity="0.26"/>
    <rect x="30" y="110" width="210" height="12" rx="6" fill="#101820" opacity="0.2"/>
    <rect x="30" y="144" width="118" height="36" rx="8" fill="#117a7a"/>
  </g>
  <g transform="translate(1162 690)" filter="url(#shadow)">
    <rect x="0" y="0" width="210" height="118" rx="16" fill="#101820"/>
    <circle cx="52" cy="60" r="22" fill="#e8ad37"/>
    <rect x="92" y="38" width="76" height="12" rx="6" fill="#ffffff" opacity="0.8"/>
    <rect x="92" y="68" width="54" height="12" rx="6" fill="#ffffff" opacity="0.48"/>
  </g>
</svg>
